# xmcd
#
# Track frame offsets: 
#        150
#        13365
#        27761
#        39382
#        56105
#        68323
#        79129
#        96323
#        109230
#        124435
#        138005
#        152773
#        166227
#        177172
#
# Disc length: 2533 seconds
#
# Revision: 0
# Processed by: cddbd v1.5.2PL0 Copyright (c) Steve Scherf et al.
# Submitted via: ExactAudioCopyFreeDBPlugin 1.0
#
DISCID=b409e30e
DTITLE=Pierre Perret - Mon p'tit loup
DYEAR=2011
DGENRE=Variété française
TTITLE0=Ça la fait marrer
TTITLE1=Mon p'tit loup
TTITLE2=Docteur
TTITLE3=Le monde change
TTITLE4=Napo Napiteau
TTITLE5=Estelle
TTITLE6=L'hôpital
TTITLE7=Les ours heureux
TTITLE8=Ça va t'faire du bien
TTITLE9=À cause du gosse
TTITLE10=Nous maigrirons ensemble
TTITLE11=Charles et Lucie
TTITLE12=Terminé Charlie
TTITLE13=Prune des bois
EXTD=Intégrale 1957 - 2011
EXTT0=
EXTT1=
EXTT2=
EXTT3=
EXTT4=
EXTT5=
EXTT6=
EXTT7=
EXTT8=
EXTT9=
EXTT10=
EXTT11=
EXTT12=
EXTT13=
PLAYORDER=
